<?xml version="1.0" standalone="no"?>
<!DOCTYPE svg PUBLIC "-//W3C//DTD SVG 20010904//EN"
 "http://www.w3.org/TR/2001/REC-SVG-20010904/DTD/svg10.dtd">
<svg version="1.0" xmlns="http://www.w3.org/2000/svg"
 width="347.000000pt" height="309.000000pt" viewBox="0 0 347.000000 309.000000"
 preserveAspectRatio="xMidYMid meet">

<g transform="translate(0.000000,309.000000) scale(0.100000,-0.100000)"
fill="#000000" stroke="none">
<path d="M0 1545 l0 -1545 1735 0 1735 0 0 1545 0 1545 -1735 0 -1735 0 0
-1545z m2280 1424 c73 -34 136 -99 174 -179 l31 -65 0 -530 c0 -525 0 -530
-22 -585 -33 -81 -101 -153 -181 -192 l-67 -33 -585 -5 -585 -5 -236 -177
c-130 -98 -244 -178 -254 -178 -10 0 -27 7 -37 17 -16 14 -18 34 -18 178 l0
162 -44 5 c-64 8 -164 58 -215 109 -24 24 -56 69 -70 99 l-26 55 0 545 0 545
28 60 c32 68 62 103 126 147 84 59 48 57 1026 55 l900 -2 55 -26z"/>
<path d="M1824 2330 c-11 -4 -34 -24 -52 -44 -27 -31 -32 -45 -32 -87 0 -62
19 -101 62 -127 73 -43 141 -36 198 22 27 29 34 45 37 88 5 62 -17 106 -69
138 -34 21 -105 26 -144 10z"/>
<path d="M635 2310 c-62 -41 -83 -126 -45 -187 31 -52 100 -79 160 -63 113 30
136 190 37 250 -42 26 -113 26 -152 0z"/>
<path d="M1223 2310 c-71 -43 -85 -153 -26 -212 85 -84 229 -37 240 79 9 90
-47 153 -137 153 -27 0 -58 -8 -77 -20z"/>
</g>
</svg>
